<svg version="1.1" id="Layer_1" xmlns="http://www.w3.org/2000/svg" xmlns:xlink="http://www.w3.org/1999/xlink" x="0px" y="0px"
	 width="100%" viewBox="0 0 496 496" enable-background="new 0 0 496 496" xml:space="preserve">
<path fill="#000000" opacity="1.000000" stroke="none" 
	d="
M242.326569,200.243423 
	C242.441864,201.589386 242.124115,202.646240 243.022995,203.503387 
	C244.753708,203.533661 244.877197,201.895020 245.500092,200.886429 
	C251.793518,190.696014 260.451202,183.003647 270.955017,177.502869 
	C279.525391,173.014648 284.270325,176.252914 284.251923,186.002014 
	C284.225830,199.814804 284.395660,213.629471 284.206818,227.439590 
	C284.144287,232.010315 281.708435,233.077301 277.662811,230.819687 
	C274.264709,228.923386 273.196594,225.658615 272.672211,222.072983 
	C271.485382,213.957687 271.711975,205.789703 271.664551,197.629593 
	C271.656067,196.172363 272.188141,194.647812 271.245514,193.218536 
	C269.618011,192.633850 268.836060,194.004791 267.917938,194.810486 
	C256.404541,204.914276 252.444412,221.555161 258.501526,234.169907 
	C262.195221,241.862488 267.803894,244.916077 275.840485,243.609985 
	C283.082672,242.432999 288.729584,236.616180 289.608398,229.066299 
	C290.089142,224.936066 290.032135,220.798859 289.057007,216.654602 
	C287.728790,211.009644 289.517120,207.391510 293.819550,206.089142 
	C297.915161,204.849365 302.259583,207.579727 304.171539,212.594986 
	C308.425934,223.754944 303.275177,242.228821 293.723389,250.068451 
	C282.996490,258.872528 268.346893,259.759613 256.435333,252.322937 
	C255.056122,251.461853 253.687393,250.583984 252.120941,249.591736 
	C251.662704,253.784668 252.639786,258.756805 247.542343,259.772552 
	C242.767624,260.723969 241.335052,256.076233 239.535629,252.836136 
	C235.934158,246.351135 234.728531,239.037430 232.998199,231.950714 
	C232.189545,228.638809 230.955612,227.175964 227.365280,227.179428 
	C223.724228,227.182922 222.322693,228.657516 221.941940,232.062744 
	C221.573868,235.354446 220.291931,238.602875 220.307999,241.865906 
	C220.338074,247.976501 216.022156,251.808701 213.298126,256.407196 
	C211.689255,259.123199 208.503036,259.926147 205.290497,258.721313 
	C201.343521,257.241028 199.453583,254.111053 199.801834,250.124878 
	C200.234207,245.175934 201.275070,240.278351 202.098511,235.366196 
	C202.453064,233.251160 202.921646,231.155212 203.337433,229.055527 
	C202.122925,228.110458 201.092148,227.296631 200.049210,226.498749 
	C193.627823,221.586182 194.030548,213.143707 201.580780,210.287216 
	C207.119522,208.191727 208.688400,204.638092 209.673141,199.690140 
	C211.108673,192.477097 213.599930,185.583847 216.914948,179.013153 
	C219.006210,174.868103 221.450073,171.061066 226.990860,171.571640 
	C231.476166,171.984940 238.470078,177.334579 238.612228,181.686203 
	C238.820007,188.047119 243.906509,193.262054 242.326569,200.243423 
M226.957581,198.508499 
	C226.849945,198.028244 226.742310,197.548004 226.450775,196.247253 
	C225.151886,200.862396 223.094711,204.623260 223.889740,208.748840 
	C224.165222,210.178497 226.368530,209.832855 228.202057,208.682693 
	C227.847290,205.618500 227.471664,202.374115 226.957581,198.508499 
z"/>
</svg>